<mxfile host="app.diagrams.net" modified="2022-03-04T11:43:51.834Z" agent="5.0 (Macintosh; Intel Mac OS X 10_15_7) AppleWebKit/537.36 (KHTML, like Gecko) Chrome/99.0.4844.51 Safari/537.36" etag="Q-Xr9MKCpf6ZozZyxpNV" version="16.6.5" type="github" pages="2">
  <diagram id="6a731a19-8d31-9384-78a2-239565b7b9f0" name="Page-1">
    <mxGraphModel dx="946" dy="559" grid="1" gridSize="10" guides="1" tooltips="1" connect="1" arrows="1" fold="1" page="1" pageScale="1" pageWidth="1169" pageHeight="827" background="none" math="0" shadow="0">
      <root>
        <mxCell id="0" />
        <mxCell id="1" parent="0" />
        <mxCell id="2" value="start" style="shape=mxgraph.flowchart.terminator;strokeWidth=2;gradientColor=none;gradientDirection=north;fontStyle=0;html=1;" parent="1" vertex="1">
          <mxGeometry x="260" y="60" width="120" height="30" as="geometry" />
        </mxCell>
        <mxCell id="3" value="analyse project&#xa; documentation" style="shape=mxgraph.flowchart.data;strokeWidth=2;gradientColor=none;gradientDirection=north;fontStyle=0;html=1;" parent="1" vertex="1">
          <mxGeometry x="240.5" y="130" width="159" height="80" as="geometry" />
        </mxCell>
        <mxCell id="4" value="create&#xa;material&#xa;specification" style="shape=mxgraph.flowchart.data;strokeWidth=2;gradientColor=none;gradientDirection=north;fontStyle=0;html=1;" parent="1" vertex="1">
          <mxGeometry x="240.5" y="510" width="159" height="80" as="geometry" />
        </mxCell>
        <mxCell id="5" value="check for&#xa;obscurities" style="shape=mxgraph.flowchart.data;strokeWidth=2;gradientColor=none;gradientDirection=north;fontStyle=0;html=1;" parent="1" vertex="1">
          <mxGeometry x="240.5" y="250" width="159" height="80" as="geometry" />
        </mxCell>
        <mxCell id="6" value="obscurities?" style="shape=mxgraph.flowchart.decision;strokeWidth=2;gradientColor=none;gradientDirection=north;fontStyle=0;html=1;" parent="1" vertex="1">
          <mxGeometry x="271" y="390" width="98" height="57" as="geometry" />
        </mxCell>
        <mxCell id="7" style="fontStyle=1;strokeColor=#003366;strokeWidth=1;html=1;" parent="1" source="2" target="3" edge="1">
          <mxGeometry relative="1" as="geometry" />
        </mxCell>
        <mxCell id="8" style="fontStyle=1;strokeColor=#003366;strokeWidth=1;html=1;" parent="1" source="3" target="5" edge="1">
          <mxGeometry relative="1" as="geometry" />
        </mxCell>
        <mxCell id="9" style="entryX=0.5;entryY=0;entryPerimeter=0;fontStyle=1;strokeColor=#003366;strokeWidth=1;html=1;" parent="1" source="5" target="6" edge="1">
          <mxGeometry relative="1" as="geometry" />
        </mxCell>
        <mxCell id="10" value="" style="edgeStyle=elbowEdgeStyle;elbow=horizontal;entryX=0.5;entryY=0.91;entryPerimeter=0;exitX=1;exitY=0.5;exitPerimeter=0;fontStyle=1;strokeColor=#003366;strokeWidth=1;html=1;" parent="1" source="6" target="51" edge="1">
          <mxGeometry x="381" y="28.5" width="100" height="100" as="geometry">
            <mxPoint x="750" y="447" as="sourcePoint" />
            <mxPoint x="765.395" y="318.5" as="targetPoint" />
            <Array as="points">
              <mxPoint x="545" y="400" />
            </Array>
          </mxGeometry>
        </mxCell>
        <mxCell id="11" value="yes" style="text;fontStyle=0;html=1;strokeColor=none;gradientColor=none;fillColor=none;strokeWidth=2;" parent="1" vertex="1">
          <mxGeometry x="370" y="390" width="40" height="26" as="geometry" />
        </mxCell>
        <mxCell id="12" value="" style="edgeStyle=elbowEdgeStyle;elbow=horizontal;fontColor=#001933;fontStyle=1;strokeColor=#003366;strokeWidth=1;html=1;" parent="1" source="6" target="4" edge="1">
          <mxGeometry width="100" height="100" as="geometry">
            <mxPoint y="100" as="sourcePoint" />
            <mxPoint x="100" as="targetPoint" />
          </mxGeometry>
        </mxCell>
        <mxCell id="13" value="order material" style="shape=mxgraph.flowchart.data;strokeWidth=2;gradientColor=none;gradientDirection=north;fontStyle=0;html=1;" parent="1" vertex="1">
          <mxGeometry x="240.5" y="640" width="159" height="80" as="geometry" />
        </mxCell>
        <mxCell id="14" value="no" style="text;fontStyle=0;html=1;strokeColor=none;gradientColor=none;fillColor=none;strokeWidth=2;align=center;" parent="1" vertex="1">
          <mxGeometry x="320" y="447" width="40" height="26" as="geometry" />
        </mxCell>
        <mxCell id="15" value="final project" style="shape=mxgraph.flowchart.document;strokeWidth=2;gradientColor=none;gradientDirection=north;fontStyle=0;html=1;" parent="1" vertex="1">
          <mxGeometry x="480" y="515" width="140" height="70" as="geometry" />
        </mxCell>
        <mxCell id="16" value="" style="edgeStyle=elbowEdgeStyle;elbow=horizontal;exitX=0.905;exitY=0.5;exitPerimeter=0;fontStyle=1;strokeColor=#003366;strokeWidth=1;html=1;" parent="1" source="4" target="15" edge="1">
          <mxGeometry width="100" height="100" as="geometry">
            <mxPoint y="100" as="sourcePoint" />
            <mxPoint x="100" as="targetPoint" />
          </mxGeometry>
        </mxCell>
        <mxCell id="17" value="" style="edgeStyle=elbowEdgeStyle;elbow=horizontal;fontStyle=1;strokeColor=#003366;strokeWidth=1;html=1;" parent="1" source="4" target="13" edge="1">
          <mxGeometry width="100" height="100" as="geometry">
            <mxPoint y="100" as="sourcePoint" />
            <mxPoint x="100" as="targetPoint" />
          </mxGeometry>
        </mxCell>
        <mxCell id="18" value="material&#xa;balance" style="shape=mxgraph.flowchart.predefined_process;strokeWidth=2;gradientColor=none;gradientDirection=north;fontStyle=0;html=1;" parent="1" vertex="1">
          <mxGeometry x="480" y="635" width="190" height="90" as="geometry" />
        </mxCell>
        <mxCell id="19" value="" style="edgeStyle=elbowEdgeStyle;elbow=horizontal;exitX=0.905;exitY=0.5;exitPerimeter=0;fontStyle=1;strokeColor=#003366;strokeWidth=1;html=1;" parent="1" source="13" target="18" edge="1">
          <mxGeometry width="100" height="100" as="geometry">
            <mxPoint y="100" as="sourcePoint" />
            <mxPoint x="100" as="targetPoint" />
          </mxGeometry>
        </mxCell>
        <mxCell id="20" value="organize &#xa;workforce" style="shape=mxgraph.flowchart.manual_input;strokeWidth=2;gradientColor=none;gradientDirection=north;fontStyle=0;html=1;" parent="1" vertex="1">
          <mxGeometry x="242" y="780" width="158" height="80" as="geometry" />
        </mxCell>
        <mxCell id="21" value="" style="edgeStyle=elbowEdgeStyle;elbow=horizontal;entryX=0.5;entryY=0.195;entryPerimeter=0;fontStyle=1;strokeColor=#003366;strokeWidth=1;html=1;" parent="1" source="13" target="20" edge="1">
          <mxGeometry width="100" height="100" as="geometry">
            <mxPoint y="100" as="sourcePoint" />
            <mxPoint x="100" as="targetPoint" />
          </mxGeometry>
        </mxCell>
        <mxCell id="22" value="create Gantt&#xa;diagram" style="shape=mxgraph.flowchart.document;strokeWidth=2;gradientColor=none;gradientDirection=north;fontStyle=0;html=1;" parent="1" vertex="1">
          <mxGeometry x="240.5" y="920" width="159" height="90" as="geometry" />
        </mxCell>
        <mxCell id="23" value="" style="edgeStyle=elbowEdgeStyle;elbow=horizontal;exitX=0.5;exitY=1;exitPerimeter=0;fontStyle=1;strokeColor=#003366;strokeWidth=1;html=1;" parent="1" source="20" target="22" edge="1">
          <mxGeometry width="100" height="100" as="geometry">
            <mxPoint y="100" as="sourcePoint" />
            <mxPoint x="100" as="targetPoint" />
          </mxGeometry>
        </mxCell>
        <mxCell id="24" value="late&#xa;project&#xa;changes?" style="shape=mxgraph.flowchart.decision;strokeWidth=2;gradientColor=none;gradientDirection=north;fontStyle=0;html=1;" parent="1" vertex="1">
          <mxGeometry x="261.5" y="1080" width="119" height="78.5" as="geometry" />
        </mxCell>
        <mxCell id="25" value="" style="edgeStyle=elbowEdgeStyle;elbow=horizontal;exitX=0.5;exitY=0.9;exitPerimeter=0;fontStyle=1;strokeColor=#003366;strokeWidth=1;html=1;" parent="1" source="22" target="24" edge="1">
          <mxGeometry width="100" height="100" as="geometry">
            <mxPoint y="100" as="sourcePoint" />
            <mxPoint x="100" as="targetPoint" />
          </mxGeometry>
        </mxCell>
        <mxCell id="26" value="" style="edgeStyle=elbowEdgeStyle;elbow=horizontal;exitX=0;exitY=0.5;exitPerimeter=0;entryX=0;entryY=0.5;entryPerimeter=0;fontStyle=1;strokeColor=#003366;strokeWidth=1;html=1;" parent="1" source="28" target="6" edge="1">
          <mxGeometry width="100" height="100" as="geometry">
            <mxPoint y="100" as="sourcePoint" />
            <mxPoint x="100" as="targetPoint" />
            <Array as="points">
              <mxPoint x="160" y="850" />
            </Array>
          </mxGeometry>
        </mxCell>
        <mxCell id="27" value="yes" style="text;fontStyle=0;html=1;strokeColor=none;gradientColor=none;fillColor=none;strokeWidth=2;" parent="1" vertex="1">
          <mxGeometry x="280" y="1158.5" width="40" height="26" as="geometry" />
        </mxCell>
        <mxCell id="28" value="investor&#xa;disapproves&#xa; investment?" style="shape=mxgraph.flowchart.decision;strokeWidth=2;gradientColor=none;gradientDirection=north;fontStyle=0;html=1;" parent="1" vertex="1">
          <mxGeometry x="255" y="1210" width="130" height="100" as="geometry" />
        </mxCell>
        <mxCell id="29" value="agreement?" style="shape=mxgraph.flowchart.decision;strokeWidth=2;gradientColor=none;gradientDirection=north;fontStyle=0;html=1;" parent="1" vertex="1">
          <mxGeometry x="510" y="1210" width="130" height="100" as="geometry" />
        </mxCell>
        <mxCell id="30" value="" style="edgeStyle=elbowEdgeStyle;elbow=horizontal;exitX=0.5;exitY=1;exitPerimeter=0;fontStyle=1;strokeColor=#003366;strokeWidth=1;html=1;" parent="1" source="24" target="28" edge="1">
          <mxGeometry width="100" height="100" as="geometry">
            <mxPoint y="100" as="sourcePoint" />
            <mxPoint x="100" as="targetPoint" />
          </mxGeometry>
        </mxCell>
        <mxCell id="31" value="" style="edgeStyle=elbowEdgeStyle;elbow=horizontal;exitX=1;exitY=0.5;exitPerimeter=0;entryX=0;entryY=0.5;entryPerimeter=0;fontStyle=1;strokeColor=#003366;strokeWidth=1;html=1;" parent="1" source="28" target="29" edge="1">
          <mxGeometry width="100" height="100" as="geometry">
            <mxPoint y="100" as="sourcePoint" />
            <mxPoint x="100" as="targetPoint" />
          </mxGeometry>
        </mxCell>
        <mxCell id="32" value="terminate&#xa;contract&#xa;" style="shape=mxgraph.flowchart.merge_or_storage;strokeWidth=2;gradientColor=none;gradientDirection=north;fontStyle=0;html=1;" parent="1" vertex="1">
          <mxGeometry x="760" y="1300" width="130" height="80.5" as="geometry" />
        </mxCell>
        <mxCell id="33" value="" style="edgeStyle=elbowEdgeStyle;elbow=vertical;exitX=1;exitY=0.5;exitPerimeter=0;entryX=0.5;entryY=0;entryPerimeter=0;fontStyle=1;strokeColor=#003366;strokeWidth=1;html=1;" parent="1" source="29" target="32" edge="1">
          <mxGeometry width="100" height="100" as="geometry">
            <mxPoint y="100" as="sourcePoint" />
            <mxPoint x="100" as="targetPoint" />
            <Array as="points">
              <mxPoint x="740" y="1260" />
            </Array>
          </mxGeometry>
        </mxCell>
        <mxCell id="34" value="create&#xa;status&#xa;report" style="shape=mxgraph.flowchart.data;strokeWidth=2;gradientColor=none;gradientDirection=north;fontStyle=0;html=1;" parent="1" vertex="1">
          <mxGeometry x="240.5" y="1490" width="159" height="80" as="geometry" />
        </mxCell>
        <mxCell id="35" value="" style="edgeStyle=elbowEdgeStyle;elbow=vertical;exitX=0.5;exitY=1;exitPerimeter=0;fontColor=#001933;fontStyle=1;strokeColor=#003366;strokeWidth=1;html=1;" parent="1" source="28" target="34" edge="1">
          <mxGeometry width="100" height="100" as="geometry">
            <mxPoint y="100" as="sourcePoint" />
            <mxPoint x="100" as="targetPoint" />
          </mxGeometry>
        </mxCell>
        <mxCell id="36" value="" style="edgeStyle=elbowEdgeStyle;elbow=vertical;exitX=0.5;exitY=1;exitPerimeter=0;entryX=0.5;entryY=0;entryPerimeter=0;fontStyle=1;strokeColor=#003366;strokeWidth=1;html=1;" parent="1" source="29" target="34" edge="1">
          <mxGeometry width="100" height="100" as="geometry">
            <mxPoint y="100" as="sourcePoint" />
            <mxPoint x="100" as="targetPoint" />
          </mxGeometry>
        </mxCell>
        <mxCell id="37" value="project&#xa;complete?" style="shape=mxgraph.flowchart.decision;strokeWidth=2;gradientColor=none;gradientDirection=north;fontStyle=0;html=1;" parent="1" vertex="1">
          <mxGeometry x="271" y="1621.5" width="98" height="57" as="geometry" />
        </mxCell>
        <mxCell id="38" value="create&#xa;final&#xa;report" style="shape=mxgraph.flowchart.data;strokeWidth=2;gradientColor=none;gradientDirection=north;fontStyle=0;html=1;" parent="1" vertex="1">
          <mxGeometry x="240.5" y="1730" width="159" height="80" as="geometry" />
        </mxCell>
        <mxCell id="39" value="issue&#xa;bill of works" style="shape=mxgraph.flowchart.predefined_process;strokeWidth=2;gradientColor=none;gradientDirection=north;fontStyle=0;html=1;" parent="1" vertex="1">
          <mxGeometry x="560" y="1725" width="190" height="90" as="geometry" />
        </mxCell>
        <mxCell id="40" value="end" style="shape=mxgraph.flowchart.terminator;strokeWidth=2;gradientColor=none;gradientDirection=north;fontStyle=0;html=1;" parent="1" vertex="1">
          <mxGeometry x="260" y="1910" width="120" height="30" as="geometry" />
        </mxCell>
        <mxCell id="41" value="" style="edgeStyle=elbowEdgeStyle;elbow=vertical;exitX=0.5;exitY=1;exitPerimeter=0;entryX=0.5;entryY=0;entryPerimeter=0;fontStyle=1;strokeColor=#003366;strokeWidth=1;html=1;" parent="1" source="34" target="37" edge="1">
          <mxGeometry width="100" height="100" as="geometry">
            <mxPoint y="100" as="sourcePoint" />
            <mxPoint x="100" as="targetPoint" />
          </mxGeometry>
        </mxCell>
        <mxCell id="42" value="" style="edgeStyle=elbowEdgeStyle;elbow=vertical;exitX=0.5;exitY=1;exitPerimeter=0;entryX=0.5;entryY=0;entryPerimeter=0;fontStyle=1;strokeColor=#003366;strokeWidth=1;html=1;" parent="1" source="37" target="38" edge="1">
          <mxGeometry width="100" height="100" as="geometry">
            <mxPoint y="100" as="sourcePoint" />
            <mxPoint x="100" as="targetPoint" />
          </mxGeometry>
        </mxCell>
        <mxCell id="43" value="" style="edgeStyle=elbowEdgeStyle;elbow=vertical;exitX=0.5;exitY=1;exitPerimeter=0;entryX=0.5;entryY=0;entryPerimeter=0;fontStyle=1;strokeColor=#003366;strokeWidth=1;html=1;" parent="1" source="38" target="40" edge="1">
          <mxGeometry width="100" height="100" as="geometry">
            <mxPoint y="100" as="sourcePoint" />
            <mxPoint x="100" as="targetPoint" />
          </mxGeometry>
        </mxCell>
        <mxCell id="44" value="" style="edgeStyle=elbowEdgeStyle;elbow=vertical;exitX=0.905;exitY=0.5;exitPerimeter=0;entryX=0;entryY=0.5;entryPerimeter=0;fontStyle=1;strokeColor=#003366;strokeWidth=1;html=1;" parent="1" source="38" target="39" edge="1">
          <mxGeometry width="100" height="100" as="geometry">
            <mxPoint y="100" as="sourcePoint" />
            <mxPoint x="100" as="targetPoint" />
          </mxGeometry>
        </mxCell>
        <mxCell id="45" value="" style="edgeStyle=elbowEdgeStyle;elbow=horizontal;exitX=1;exitY=0.5;exitPerimeter=0;entryX=0.905;entryY=0.5;entryPerimeter=0;fontStyle=1;strokeColor=#003366;strokeWidth=1;html=1;" parent="1" source="24" target="34" edge="1">
          <mxGeometry width="100" height="100" as="geometry">
            <mxPoint y="100" as="sourcePoint" />
            <mxPoint x="100" as="targetPoint" />
            <Array as="points">
              <mxPoint x="950" y="1320" />
            </Array>
          </mxGeometry>
        </mxCell>
        <mxCell id="46" value="no" style="text;fontStyle=0;html=1;strokeColor=none;gradientColor=none;fillColor=none;strokeWidth=2;" parent="1" vertex="1">
          <mxGeometry x="380.5" y="1093.25" width="40" height="26" as="geometry" />
        </mxCell>
        <mxCell id="47" value="yes" style="text;fontColor=#001933;fontStyle=0;html=1;strokeColor=none;gradientColor=none;fillColor=none;strokeWidth=2;" parent="1" vertex="1">
          <mxGeometry x="385" y="1234" width="40" height="26" as="geometry" />
        </mxCell>
        <mxCell id="48" value="no" style="text;fontColor=#001933;fontStyle=0;html=1;strokeColor=none;gradientColor=none;fillColor=none;strokeWidth=2;align=center;" parent="1" vertex="1">
          <mxGeometry x="320" y="1310" width="40" height="26" as="geometry" />
        </mxCell>
        <mxCell id="49" value="yes" style="text;fontColor=#001933;fontStyle=0;html=1;strokeColor=none;gradientColor=none;fillColor=none;strokeWidth=2;align=center;" parent="1" vertex="1">
          <mxGeometry x="575" y="1310" width="40" height="26" as="geometry" />
        </mxCell>
        <mxCell id="50" value="no" style="text;fontColor=#001933;fontStyle=0;html=1;strokeColor=none;gradientColor=none;fillColor=none;strokeWidth=2;" parent="1" vertex="1">
          <mxGeometry x="640" y="1234" width="40" height="26" as="geometry" />
        </mxCell>
        <mxCell id="51" value="iron out&#xa;obscurities &#xa;with investor" style="shape=mxgraph.flowchart.paper_tape;strokeWidth=2;gradientColor=none;gradientDirection=north;fontStyle=0;html=1;" parent="1" vertex="1">
          <mxGeometry x="470" y="300" width="150" height="81" as="geometry" />
        </mxCell>
        <mxCell id="52" value="" style="edgeStyle=elbowEdgeStyle;elbow=horizontal;exitX=0.5;exitY=0.09;exitPerimeter=0;entryX=0.905;entryY=0.5;entryPerimeter=0;fontStyle=1;strokeColor=#003366;strokeWidth=1;html=1;" parent="1" source="51" target="5" edge="1">
          <mxGeometry width="100" height="100" as="geometry">
            <mxPoint y="100" as="sourcePoint" />
            <mxPoint x="100" as="targetPoint" />
            <Array as="points">
              <mxPoint x="545" y="300" />
            </Array>
          </mxGeometry>
        </mxCell>
        <mxCell id="53" value="yes" style="text;fontStyle=0;html=1;strokeColor=none;gradientColor=none;fillColor=none;strokeWidth=2;align=center;" parent="1" vertex="1">
          <mxGeometry x="321" y="1680" width="40" height="26" as="geometry" />
        </mxCell>
        <mxCell id="54" value="" style="edgeStyle=elbowEdgeStyle;elbow=horizontal;exitX=0;exitY=0.5;exitPerimeter=0;entryX=0.095;entryY=0.5;entryPerimeter=0;fontStyle=1;strokeColor=#003366;strokeWidth=1;html=1;" parent="1" source="37" target="5" edge="1">
          <mxGeometry width="100" height="100" as="geometry">
            <mxPoint y="100" as="sourcePoint" />
            <mxPoint x="100" as="targetPoint" />
            <Array as="points">
              <mxPoint x="120" y="970" />
            </Array>
          </mxGeometry>
        </mxCell>
        <mxCell id="55" value="no" style="text;fontStyle=0;html=1;strokeColor=none;gradientColor=none;fillColor=none;strokeWidth=2;" parent="1" vertex="1">
          <mxGeometry x="235" y="1624" width="40" height="26" as="geometry" />
        </mxCell>
      </root>
    </mxGraphModel>
  </diagram>
  <diagram id="lQ-XxPIbnXV0f_y6dsmI" name="Page-2">
    <mxGraphModel dx="946" dy="559" grid="1" gridSize="10" guides="1" tooltips="1" connect="1" arrows="1" fold="1" page="1" pageScale="1" pageWidth="827" pageHeight="1169" math="0" shadow="0">
      <root>
        <mxCell id="p9jpv4_kcnzIVzixiFc--0" />
        <mxCell id="p9jpv4_kcnzIVzixiFc--1" parent="p9jpv4_kcnzIVzixiFc--0" />
        <mxCell id="p9jpv4_kcnzIVzixiFc--2" value="CI/CD (testing and snapshot phase)" style="swimlane;html=1;childLayout=stackLayout;startSize=20;rounded=0;shadow=0;comic=0;labelBackgroundColor=none;strokeWidth=1;fontFamily=Verdana;fontSize=12;align=center;" parent="p9jpv4_kcnzIVzixiFc--1" vertex="1">
          <mxGeometry x="56" y="20" width="960" height="860" as="geometry" />
        </mxCell>
        <mxCell id="p9jpv4_kcnzIVzixiFc--3" value="Developer" style="swimlane;html=1;startSize=20;fillColor=#E6D0DE;" parent="p9jpv4_kcnzIVzixiFc--2" vertex="1">
          <mxGeometry y="20" width="170" height="840" as="geometry" />
        </mxCell>
        <mxCell id="p9jpv4_kcnzIVzixiFc--7" style="edgeStyle=none;rounded=0;html=1;labelBackgroundColor=none;startArrow=none;startFill=0;startSize=5;endArrow=classicThin;endFill=1;endSize=5;jettySize=auto;orthogonalLoop=1;strokeWidth=1;fontFamily=Verdana;fontSize=12" parent="p9jpv4_kcnzIVzixiFc--3" target="p9jpv4_kcnzIVzixiFc--6" edge="1">
          <mxGeometry relative="1" as="geometry">
            <mxPoint x="162.72727272727275" y="310" as="sourcePoint" />
          </mxGeometry>
        </mxCell>
        <mxCell id="p9jpv4_kcnzIVzixiFc--10" style="edgeStyle=none;rounded=0;html=1;dashed=1;labelBackgroundColor=none;startArrow=none;startFill=0;startSize=5;endArrow=oval;endFill=0;endSize=5;jettySize=auto;orthogonalLoop=1;strokeWidth=1;fontFamily=Verdana;fontSize=12" parent="p9jpv4_kcnzIVzixiFc--3" target="p9jpv4_kcnzIVzixiFc--8" edge="1">
          <mxGeometry relative="1" as="geometry">
            <mxPoint x="105" y="295" as="sourcePoint" />
          </mxGeometry>
        </mxCell>
        <mxCell id="99bqE9r6Goa_jmTxUzi7-0" value="" style="ellipse;whiteSpace=wrap;html=1;rounded=0;shadow=0;comic=0;labelBackgroundColor=none;strokeWidth=1;fillColor=#000000;fontFamily=Verdana;fontSize=12;align=center;" vertex="1" parent="p9jpv4_kcnzIVzixiFc--3">
          <mxGeometry x="80" y="40" width="40" height="40" as="geometry" />
        </mxCell>
        <mxCell id="99bqE9r6Goa_jmTxUzi7-5" value="commit to develop" style="rounded=1;whiteSpace=wrap;html=1;shadow=0;comic=0;labelBackgroundColor=none;strokeWidth=1;fontFamily=Verdana;fontSize=12;align=center;arcSize=50;fillColor=#E6D0DE;" vertex="1" parent="p9jpv4_kcnzIVzixiFc--3">
          <mxGeometry x="47" y="110" width="106" height="40" as="geometry" />
        </mxCell>
        <mxCell id="99bqE9r6Goa_jmTxUzi7-10" value="" style="endArrow=classic;startArrow=classic;html=1;rounded=0;" edge="1" parent="p9jpv4_kcnzIVzixiFc--3">
          <mxGeometry width="50" height="50" relative="1" as="geometry">
            <mxPoint x="194" y="230" as="sourcePoint" />
            <mxPoint x="194" y="130" as="targetPoint" />
          </mxGeometry>
        </mxCell>
        <mxCell id="99bqE9r6Goa_jmTxUzi7-20" style="edgeStyle=none;rounded=0;html=1;labelBackgroundColor=none;startArrow=none;startFill=0;startSize=5;endArrow=classicThin;endFill=1;endSize=5;jettySize=auto;orthogonalLoop=1;strokeWidth=1;fontFamily=Verdana;fontSize=12;exitX=0.5;exitY=1;exitDx=0;exitDy=0;entryX=0.5;entryY=0;entryDx=0;entryDy=0;" edge="1" parent="p9jpv4_kcnzIVzixiFc--3" source="99bqE9r6Goa_jmTxUzi7-0" target="99bqE9r6Goa_jmTxUzi7-5">
          <mxGeometry relative="1" as="geometry">
            <mxPoint x="515" y="366.1111111111111" as="sourcePoint" />
            <mxPoint x="465" y="377.2222222222222" as="targetPoint" />
          </mxGeometry>
        </mxCell>
        <mxCell id="tpZqNbcmQ4dt6EaaYstB-2" value="rework" style="rounded=1;whiteSpace=wrap;html=1;shadow=0;comic=0;labelBackgroundColor=none;strokeWidth=1;fontFamily=Verdana;fontSize=12;align=center;arcSize=50;fillColor=#E6D0DE;" vertex="1" parent="p9jpv4_kcnzIVzixiFc--3">
          <mxGeometry x="47" y="390" width="106" height="40" as="geometry" />
        </mxCell>
        <mxCell id="MpLUShYQqHygsxXWGAlu-10" value="" style="endArrow=classic;html=1;rounded=0;fontFamily=Verdana;fontSize=12;exitX=0;exitY=0.5;exitDx=0;exitDy=0;entryX=0;entryY=0.5;entryDx=0;entryDy=0;" edge="1" parent="p9jpv4_kcnzIVzixiFc--3" source="tpZqNbcmQ4dt6EaaYstB-2" target="99bqE9r6Goa_jmTxUzi7-5">
          <mxGeometry width="50" height="50" relative="1" as="geometry">
            <mxPoint x="305" y="450" as="sourcePoint" />
            <mxPoint x="405" y="490" as="targetPoint" />
            <Array as="points">
              <mxPoint x="23" y="410" />
              <mxPoint x="23" y="130" />
            </Array>
          </mxGeometry>
        </mxCell>
        <mxCell id="p9jpv4_kcnzIVzixiFc--12" value="Jenkins" style="swimlane;html=1;startSize=20;fillColor=#FFCC99;" parent="p9jpv4_kcnzIVzixiFc--2" vertex="1">
          <mxGeometry x="170" y="20" width="200" height="840" as="geometry" />
        </mxCell>
        <mxCell id="99bqE9r6Goa_jmTxUzi7-4" value="develop change detected" style="rounded=1;whiteSpace=wrap;html=1;shadow=0;comic=0;labelBackgroundColor=none;strokeWidth=1;fontFamily=Verdana;fontSize=12;align=center;arcSize=50;fillColor=#FFCC99;" vertex="1" parent="p9jpv4_kcnzIVzixiFc--12">
          <mxGeometry x="72" y="210" width="106" height="40" as="geometry" />
        </mxCell>
        <mxCell id="99bqE9r6Goa_jmTxUzi7-14" value="" style="shape=image;html=1;verticalAlign=top;verticalLabelPosition=bottom;labelBackgroundColor=#ffffff;imageAspect=0;aspect=fixed;image=https://cdn4.iconfinder.com/data/icons/48-bubbles/48/35.Alarm-Clock-128.png" vertex="1" parent="p9jpv4_kcnzIVzixiFc--12">
          <mxGeometry x="30" y="160" width="28" height="28" as="geometry" />
        </mxCell>
        <mxCell id="99bqE9r6Goa_jmTxUzi7-15" value="&lt;font style=&quot;font-size: 10px&quot;&gt;poll&lt;br&gt;(300s)&lt;/font&gt;" style="shape=note;whiteSpace=wrap;html=1;rounded=0;shadow=0;comic=0;labelBackgroundColor=none;strokeWidth=1;fontFamily=Verdana;fontSize=12;align=center;size=20;fillColor=#FFFFCC;" vertex="1" parent="p9jpv4_kcnzIVzixiFc--12">
          <mxGeometry x="101.25" y="140" width="67.5" height="40" as="geometry" />
        </mxCell>
        <mxCell id="99bqE9r6Goa_jmTxUzi7-16" style="edgeStyle=none;rounded=0;html=1;labelBackgroundColor=none;startArrow=none;startFill=0;startSize=5;endArrow=oval;endFill=0;endSize=5;jettySize=auto;orthogonalLoop=1;strokeWidth=1;fontFamily=Verdana;fontSize=12;dashed=1;entryX=1;entryY=0.5;entryDx=0;entryDy=0;exitX=0;exitY=0.5;exitDx=0;exitDy=0;exitPerimeter=0;" edge="1" parent="p9jpv4_kcnzIVzixiFc--12" source="99bqE9r6Goa_jmTxUzi7-15" target="99bqE9r6Goa_jmTxUzi7-14">
          <mxGeometry relative="1" as="geometry">
            <mxPoint x="-150.375" y="284" as="sourcePoint" />
            <mxPoint x="-119.375" y="260" as="targetPoint" />
          </mxGeometry>
        </mxCell>
        <mxCell id="99bqE9r6Goa_jmTxUzi7-19" value="unit tests" style="rounded=1;whiteSpace=wrap;html=1;shadow=0;comic=0;labelBackgroundColor=none;strokeWidth=1;fontFamily=Verdana;fontSize=12;align=center;arcSize=50;fillColor=#FFCC99;" vertex="1" parent="p9jpv4_kcnzIVzixiFc--12">
          <mxGeometry x="72" y="290" width="106" height="40" as="geometry" />
        </mxCell>
        <mxCell id="99bqE9r6Goa_jmTxUzi7-21" style="edgeStyle=none;rounded=0;html=1;labelBackgroundColor=none;startArrow=none;startFill=0;startSize=5;endArrow=classicThin;endFill=1;endSize=5;jettySize=auto;orthogonalLoop=1;strokeWidth=1;fontFamily=Verdana;fontSize=12;exitX=0.5;exitY=1;exitDx=0;exitDy=0;entryX=0.5;entryY=0;entryDx=0;entryDy=0;" edge="1" parent="p9jpv4_kcnzIVzixiFc--12" source="99bqE9r6Goa_jmTxUzi7-4" target="99bqE9r6Goa_jmTxUzi7-19">
          <mxGeometry relative="1" as="geometry">
            <mxPoint x="-60" y="90" as="sourcePoint" />
            <mxPoint x="-60" y="120" as="targetPoint" />
          </mxGeometry>
        </mxCell>
        <mxCell id="tpZqNbcmQ4dt6EaaYstB-1" value="&lt;font style=&quot;font-size: 12px&quot; face=&quot;Verdana&quot;&gt;success?&lt;/font&gt;" style="strokeWidth=1;html=1;shape=mxgraph.flowchart.decision;whiteSpace=wrap;fontSize=10;fillColor=#FFCC99;" vertex="1" parent="p9jpv4_kcnzIVzixiFc--12">
          <mxGeometry x="75" y="380" width="100" height="60" as="geometry" />
        </mxCell>
        <mxCell id="PqO76QqWCNPfQcLTHWCt-3" value="no" style="text;html=1;strokeColor=none;fillColor=none;align=center;verticalAlign=middle;whiteSpace=wrap;rounded=0;fontFamily=Verdana;fontSize=12;" vertex="1" parent="p9jpv4_kcnzIVzixiFc--12">
          <mxGeometry x="3" y="384" width="60" height="30" as="geometry" />
        </mxCell>
        <mxCell id="MpLUShYQqHygsxXWGAlu-2" style="edgeStyle=none;rounded=0;html=1;labelBackgroundColor=none;startArrow=none;startFill=0;startSize=5;endArrow=classicThin;endFill=1;endSize=5;jettySize=auto;orthogonalLoop=1;strokeWidth=1;fontFamily=Verdana;fontSize=12;entryX=0.5;entryY=0;entryDx=0;entryDy=0;entryPerimeter=0;exitX=0.5;exitY=1;exitDx=0;exitDy=0;" edge="1" parent="p9jpv4_kcnzIVzixiFc--12" source="99bqE9r6Goa_jmTxUzi7-19" target="tpZqNbcmQ4dt6EaaYstB-1">
          <mxGeometry relative="1" as="geometry">
            <mxPoint x="128" y="350" as="sourcePoint" />
            <mxPoint x="135" y="320" as="targetPoint" />
          </mxGeometry>
        </mxCell>
        <mxCell id="MpLUShYQqHygsxXWGAlu-6" value="yes" style="text;html=1;strokeColor=none;fillColor=none;align=center;verticalAlign=middle;whiteSpace=wrap;rounded=0;fontFamily=Verdana;fontSize=12;" vertex="1" parent="p9jpv4_kcnzIVzixiFc--12">
          <mxGeometry x="138" y="450" width="60" height="30" as="geometry" />
        </mxCell>
        <mxCell id="p9jpv4_kcnzIVzixiFc--28" value="release tool" style="swimlane;html=1;startSize=20;fillColor=#FFCCCC;" parent="p9jpv4_kcnzIVzixiFc--2" vertex="1">
          <mxGeometry x="370" y="20" width="160" height="840" as="geometry" />
        </mxCell>
        <mxCell id="p9jpv4_kcnzIVzixiFc--29" style="edgeStyle=orthogonalEdgeStyle;rounded=0;html=1;labelBackgroundColor=none;startArrow=none;startFill=0;startSize=5;endArrow=classicThin;endFill=1;endSize=5;jettySize=auto;orthogonalLoop=1;strokeWidth=1;fontFamily=Verdana;fontSize=12" parent="p9jpv4_kcnzIVzixiFc--28" target="p9jpv4_kcnzIVzixiFc--31" edge="1">
          <mxGeometry relative="1" as="geometry">
            <mxPoint x="100" y="80" as="sourcePoint" />
          </mxGeometry>
        </mxCell>
        <mxCell id="p9jpv4_kcnzIVzixiFc--32" style="rounded=0;html=1;labelBackgroundColor=none;startArrow=none;startFill=0;startSize=5;endArrow=classicThin;endFill=1;endSize=5;jettySize=auto;orthogonalLoop=1;strokeWidth=1;fontFamily=Verdana;fontSize=12" parent="p9jpv4_kcnzIVzixiFc--28" target="p9jpv4_kcnzIVzixiFc--37" edge="1">
          <mxGeometry relative="1" as="geometry">
            <mxPoint x="83.75" y="238" as="sourcePoint" />
          </mxGeometry>
        </mxCell>
        <mxCell id="p9jpv4_kcnzIVzixiFc--46" style="edgeStyle=none;rounded=0;html=1;dashed=1;labelBackgroundColor=none;startArrow=none;startFill=0;startSize=5;endArrow=oval;endFill=0;endSize=5;jettySize=auto;orthogonalLoop=1;strokeWidth=1;fontFamily=Verdana;fontSize=12" parent="p9jpv4_kcnzIVzixiFc--28" source="p9jpv4_kcnzIVzixiFc--48" edge="1">
          <mxGeometry relative="1" as="geometry">
            <mxPoint x="122.9545454545455" y="238" as="targetPoint" />
          </mxGeometry>
        </mxCell>
        <mxCell id="p9jpv4_kcnzIVzixiFc--47" style="edgeStyle=none;rounded=0;html=1;dashed=1;labelBackgroundColor=none;startArrow=none;startFill=0;startSize=5;endArrow=oval;endFill=0;endSize=5;jettySize=auto;orthogonalLoop=1;strokeWidth=1;fontFamily=Verdana;fontSize=12" parent="p9jpv4_kcnzIVzixiFc--28" source="p9jpv4_kcnzIVzixiFc--48" edge="1">
          <mxGeometry relative="1" as="geometry">
            <mxPoint x="85" y="281.81355932203394" as="targetPoint" />
          </mxGeometry>
        </mxCell>
        <mxCell id="MpLUShYQqHygsxXWGAlu-3" value="snapshot&amp;nbsp; builder" style="rounded=1;whiteSpace=wrap;html=1;shadow=0;comic=0;labelBackgroundColor=none;strokeWidth=1;fontFamily=Verdana;fontSize=12;align=center;arcSize=50;fillColor=#FFCCCC;" vertex="1" parent="p9jpv4_kcnzIVzixiFc--28">
          <mxGeometry x="25" y="460" width="106" height="40" as="geometry" />
        </mxCell>
        <mxCell id="MpLUShYQqHygsxXWGAlu-4" value="Artifactory" style="swimlane;html=1;startSize=20;" vertex="1" parent="p9jpv4_kcnzIVzixiFc--2">
          <mxGeometry x="530" y="20" width="150" height="840" as="geometry" />
        </mxCell>
        <mxCell id="MpLUShYQqHygsxXWGAlu-8" value="snapshot package" style="strokeWidth=2;html=1;shape=mxgraph.flowchart.document2;whiteSpace=wrap;size=0.25;fontFamily=Verdana;fontSize=12;fillColor=#E6FFCC;" vertex="1" parent="MpLUShYQqHygsxXWGAlu-4">
          <mxGeometry x="25" y="450" width="100" height="60" as="geometry" />
        </mxCell>
        <mxCell id="p9jpv4_kcnzIVzixiFc--63" style="edgeStyle=none;rounded=0;html=1;dashed=1;labelBackgroundColor=none;startArrow=none;startFill=0;startSize=5;endArrow=oval;endFill=0;endSize=5;jettySize=auto;orthogonalLoop=1;strokeWidth=1;fontFamily=Verdana;fontSize=12" parent="p9jpv4_kcnzIVzixiFc--2" target="p9jpv4_kcnzIVzixiFc--40" edge="1">
          <mxGeometry relative="1" as="geometry">
            <mxPoint x="315" y="678.6666666666667" as="sourcePoint" />
          </mxGeometry>
        </mxCell>
        <mxCell id="PqO76QqWCNPfQcLTHWCt-0" value="" style="endArrow=classic;html=1;rounded=0;fontFamily=Verdana;fontSize=12;entryX=1;entryY=0.5;entryDx=0;entryDy=0;exitX=0;exitY=0.5;exitDx=0;exitDy=0;exitPerimeter=0;" edge="1" parent="p9jpv4_kcnzIVzixiFc--2" source="tpZqNbcmQ4dt6EaaYstB-1" target="tpZqNbcmQ4dt6EaaYstB-2">
          <mxGeometry width="50" height="50" relative="1" as="geometry">
            <mxPoint x="343" y="320" as="sourcePoint" />
            <mxPoint x="393" y="270" as="targetPoint" />
          </mxGeometry>
        </mxCell>
        <mxCell id="MpLUShYQqHygsxXWGAlu-5" value="" style="endArrow=classic;html=1;rounded=0;fontFamily=Verdana;fontSize=12;exitX=0.5;exitY=1;exitDx=0;exitDy=0;exitPerimeter=0;entryX=0;entryY=0.5;entryDx=0;entryDy=0;" edge="1" parent="p9jpv4_kcnzIVzixiFc--2" source="tpZqNbcmQ4dt6EaaYstB-1" target="MpLUShYQqHygsxXWGAlu-3">
          <mxGeometry width="50" height="50" relative="1" as="geometry">
            <mxPoint x="533" y="470" as="sourcePoint" />
            <mxPoint x="583" y="420" as="targetPoint" />
            <Array as="points">
              <mxPoint x="295" y="500" />
            </Array>
          </mxGeometry>
        </mxCell>
        <mxCell id="p9jpv4_kcnzIVzixiFc--41" style="edgeStyle=none;rounded=0;html=1;labelBackgroundColor=none;startArrow=none;startFill=0;startSize=5;endArrow=classicThin;endFill=1;endSize=5;jettySize=auto;orthogonalLoop=1;strokeWidth=1;fontFamily=Verdana;fontSize=12;exitX=1;exitY=0.5;exitDx=0;exitDy=0;entryX=0;entryY=0.5;entryDx=0;entryDy=0;entryPerimeter=0;" parent="p9jpv4_kcnzIVzixiFc--2" source="MpLUShYQqHygsxXWGAlu-3" target="MpLUShYQqHygsxXWGAlu-8" edge="1">
          <mxGeometry relative="1" as="geometry">
            <mxPoint x="490" y="720" as="sourcePoint" />
          </mxGeometry>
        </mxCell>
        <mxCell id="MpLUShYQqHygsxXWGAlu-9" value="Puppet (test env)" style="swimlane;html=1;startSize=20;fillColor=#CCFFFF;" vertex="1" parent="p9jpv4_kcnzIVzixiFc--2">
          <mxGeometry x="680" y="20" width="280" height="840" as="geometry" />
        </mxCell>
        <mxCell id="vh4EDal8CIMfL7RdVoZ9-0" value="" style="shape=image;html=1;verticalAlign=top;verticalLabelPosition=bottom;labelBackgroundColor=#ffffff;imageAspect=0;aspect=fixed;image=https://cdn4.iconfinder.com/data/icons/48-bubbles/48/35.Alarm-Clock-128.png" vertex="1" parent="MpLUShYQqHygsxXWGAlu-9">
          <mxGeometry x="116" y="310" width="28" height="28" as="geometry" />
        </mxCell>
        <mxCell id="vh4EDal8CIMfL7RdVoZ9-1" value="load system facts" style="rounded=1;whiteSpace=wrap;html=1;shadow=0;comic=0;labelBackgroundColor=none;strokeWidth=1;fontFamily=Verdana;fontSize=12;align=center;arcSize=50;fillColor=#CCFFFF;" vertex="1" parent="MpLUShYQqHygsxXWGAlu-9">
          <mxGeometry x="144" y="460" width="106" height="40" as="geometry" />
        </mxCell>
        <mxCell id="vh4EDal8CIMfL7RdVoZ9-2" value="discover newest version" style="rounded=1;whiteSpace=wrap;html=1;shadow=0;comic=0;labelBackgroundColor=none;strokeWidth=1;fontFamily=Verdana;fontSize=12;align=center;arcSize=50;fillColor=#CCFFFF;" vertex="1" parent="MpLUShYQqHygsxXWGAlu-9">
          <mxGeometry x="24" y="460" width="106" height="40" as="geometry" />
        </mxCell>
        <mxCell id="vh4EDal8CIMfL7RdVoZ9-9" value="" style="line;strokeWidth=6;fillColor=none;align=left;verticalAlign=middle;spacingTop=-1;spacingLeft=3;spacingRight=3;rotatable=0;labelPosition=right;points=[];portConstraint=eastwest;fontFamily=Verdana;fontSize=12;aspect=fixed;" vertex="1" parent="MpLUShYQqHygsxXWGAlu-9">
          <mxGeometry x="54" y="400" width="157" height="31.4" as="geometry" />
        </mxCell>
        <mxCell id="vh4EDal8CIMfL7RdVoZ9-6" style="edgeStyle=none;rounded=0;html=1;labelBackgroundColor=none;startArrow=none;startFill=0;startSize=5;endArrow=classicThin;endFill=1;endSize=5;jettySize=auto;orthogonalLoop=1;strokeWidth=1;fontFamily=Verdana;fontSize=12;entryX=0.5;entryY=0;entryDx=0;entryDy=0;exitX=0.146;exitY=0.557;exitDx=0;exitDy=0;exitPerimeter=0;" edge="1" parent="MpLUShYQqHygsxXWGAlu-9" source="vh4EDal8CIMfL7RdVoZ9-9" target="vh4EDal8CIMfL7RdVoZ9-2">
          <mxGeometry relative="1" as="geometry">
            <mxPoint x="134" y="380" as="sourcePoint" />
            <mxPoint x="34" y="490" as="targetPoint" />
          </mxGeometry>
        </mxCell>
        <mxCell id="vh4EDal8CIMfL7RdVoZ9-10" style="edgeStyle=none;rounded=0;html=1;labelBackgroundColor=none;startArrow=none;startFill=0;startSize=5;endArrow=classicThin;endFill=1;endSize=5;jettySize=auto;orthogonalLoop=1;strokeWidth=1;fontFamily=Verdana;fontSize=12;entryX=0.5;entryY=0;entryDx=0;entryDy=0;exitX=0.911;exitY=0.525;exitDx=0;exitDy=0;exitPerimeter=0;" edge="1" parent="MpLUShYQqHygsxXWGAlu-9" source="vh4EDal8CIMfL7RdVoZ9-9" target="vh4EDal8CIMfL7RdVoZ9-1">
          <mxGeometry relative="1" as="geometry">
            <mxPoint x="194" y="420" as="sourcePoint" />
            <mxPoint x="87" y="470" as="targetPoint" />
          </mxGeometry>
        </mxCell>
        <mxCell id="vh4EDal8CIMfL7RdVoZ9-11" style="edgeStyle=none;rounded=0;html=1;labelBackgroundColor=none;startArrow=none;startFill=0;startSize=5;endArrow=oval;endFill=0;endSize=5;jettySize=auto;orthogonalLoop=1;strokeWidth=1;fontFamily=Verdana;fontSize=12;dashed=1;exitX=0.5;exitY=1;exitDx=0;exitDy=0;" edge="1" parent="MpLUShYQqHygsxXWGAlu-9" source="vh4EDal8CIMfL7RdVoZ9-0">
          <mxGeometry relative="1" as="geometry">
            <mxPoint x="74" y="310" as="sourcePoint" />
            <mxPoint x="130" y="410" as="targetPoint" />
          </mxGeometry>
        </mxCell>
        <mxCell id="vh4EDal8CIMfL7RdVoZ9-13" value="&lt;font style=&quot;font-size: 10px&quot;&gt;30&lt;br&gt;minutes&lt;/font&gt;" style="shape=note;whiteSpace=wrap;html=1;rounded=0;shadow=0;comic=0;labelBackgroundColor=none;strokeWidth=1;fontFamily=Verdana;fontSize=12;align=center;size=20;fillColor=#FFFFCC;" vertex="1" parent="MpLUShYQqHygsxXWGAlu-9">
          <mxGeometry x="174" y="330" width="67.5" height="40" as="geometry" />
        </mxCell>
        <mxCell id="vh4EDal8CIMfL7RdVoZ9-14" style="edgeStyle=none;rounded=0;html=1;labelBackgroundColor=none;startArrow=none;startFill=0;startSize=5;endArrow=oval;endFill=0;endSize=5;jettySize=auto;orthogonalLoop=1;strokeWidth=1;fontFamily=Verdana;fontSize=12;dashed=1;entryX=1;entryY=0.5;entryDx=0;entryDy=0;exitX=0;exitY=0.5;exitDx=0;exitDy=0;exitPerimeter=0;" edge="1" parent="MpLUShYQqHygsxXWGAlu-9" source="vh4EDal8CIMfL7RdVoZ9-13" target="vh4EDal8CIMfL7RdVoZ9-0">
          <mxGeometry relative="1" as="geometry">
            <mxPoint x="-398.75" y="170" as="sourcePoint" />
            <mxPoint x="-442" y="184" as="targetPoint" />
          </mxGeometry>
        </mxCell>
        <mxCell id="vh4EDal8CIMfL7RdVoZ9-15" value="&lt;font style=&quot;font-size: 12px&quot; face=&quot;Verdana&quot;&gt;newest &amp;gt; current?&lt;/font&gt;" style="strokeWidth=1;html=1;shape=mxgraph.flowchart.decision;whiteSpace=wrap;fontSize=10;fillColor=#CCFFFF;" vertex="1" parent="MpLUShYQqHygsxXWGAlu-9">
          <mxGeometry x="90" y="580" width="100" height="60" as="geometry" />
        </mxCell>
        <mxCell id="vh4EDal8CIMfL7RdVoZ9-16" style="edgeStyle=none;rounded=0;html=1;labelBackgroundColor=none;startArrow=none;startFill=0;startSize=5;endArrow=classicThin;endFill=1;endSize=5;jettySize=auto;orthogonalLoop=1;strokeWidth=1;fontFamily=Verdana;fontSize=12;entryX=0.5;entryY=0;entryDx=0;entryDy=0;exitX=0.5;exitY=1;exitDx=0;exitDy=0;entryPerimeter=0;" edge="1" parent="MpLUShYQqHygsxXWGAlu-9" source="vh4EDal8CIMfL7RdVoZ9-2" target="vh4EDal8CIMfL7RdVoZ9-15">
          <mxGeometry relative="1" as="geometry">
            <mxPoint x="86.92200000000003" y="427.48980000000006" as="sourcePoint" />
            <mxPoint x="87" y="470" as="targetPoint" />
            <Array as="points">
              <mxPoint x="77" y="550" />
              <mxPoint x="140" y="550" />
            </Array>
          </mxGeometry>
        </mxCell>
        <mxCell id="vh4EDal8CIMfL7RdVoZ9-17" style="edgeStyle=none;rounded=0;html=1;labelBackgroundColor=none;startArrow=none;startFill=0;startSize=5;endArrow=classicThin;endFill=1;endSize=5;jettySize=auto;orthogonalLoop=1;strokeWidth=1;fontFamily=Verdana;fontSize=12;entryX=0.5;entryY=0;entryDx=0;entryDy=0;exitX=0.5;exitY=1;exitDx=0;exitDy=0;entryPerimeter=0;" edge="1" parent="MpLUShYQqHygsxXWGAlu-9" source="vh4EDal8CIMfL7RdVoZ9-1" target="vh4EDal8CIMfL7RdVoZ9-15">
          <mxGeometry relative="1" as="geometry">
            <mxPoint x="87" y="510" as="sourcePoint" />
            <mxPoint x="150" y="590" as="targetPoint" />
            <Array as="points">
              <mxPoint x="197" y="550" />
              <mxPoint x="140" y="550" />
            </Array>
          </mxGeometry>
        </mxCell>
        <mxCell id="vh4EDal8CIMfL7RdVoZ9-19" value="" style="endArrow=classic;html=1;rounded=0;fontFamily=Verdana;fontSize=12;entryX=0;entryY=0.5;entryDx=0;entryDy=0;exitX=0;exitY=0.5;exitDx=0;exitDy=0;exitPerimeter=0;" edge="1" parent="MpLUShYQqHygsxXWGAlu-9" source="vh4EDal8CIMfL7RdVoZ9-15" target="vh4EDal8CIMfL7RdVoZ9-20">
          <mxGeometry width="50" height="50" relative="1" as="geometry">
            <mxPoint x="106" y="660" as="sourcePoint" />
            <mxPoint x="14" y="660" as="targetPoint" />
            <Array as="points">
              <mxPoint x="54" y="610" />
              <mxPoint x="54" y="805" />
            </Array>
          </mxGeometry>
        </mxCell>
        <mxCell id="vh4EDal8CIMfL7RdVoZ9-20" value="" style="ellipse;html=1;shape=endState;fillColor=#000000;strokeColor=#ff0000;fontFamily=Verdana;fontSize=10;" vertex="1" parent="MpLUShYQqHygsxXWGAlu-9">
          <mxGeometry x="125" y="790" width="30" height="30" as="geometry" />
        </mxCell>
        <mxCell id="vh4EDal8CIMfL7RdVoZ9-18" value="no" style="text;html=1;strokeColor=none;fillColor=none;align=center;verticalAlign=middle;whiteSpace=wrap;rounded=0;fontFamily=Verdana;fontSize=12;" vertex="1" parent="MpLUShYQqHygsxXWGAlu-9">
          <mxGeometry x="44" y="587" width="60" height="30" as="geometry" />
        </mxCell>
        <mxCell id="vh4EDal8CIMfL7RdVoZ9-71" value="install newest" style="rounded=1;whiteSpace=wrap;html=1;shadow=0;comic=0;labelBackgroundColor=none;strokeWidth=1;fontFamily=Verdana;fontSize=12;align=center;arcSize=50;fillColor=#CCFFFF;" vertex="1" parent="MpLUShYQqHygsxXWGAlu-9">
          <mxGeometry x="87" y="720" width="106" height="40" as="geometry" />
        </mxCell>
        <mxCell id="vh4EDal8CIMfL7RdVoZ9-72" style="edgeStyle=none;rounded=0;html=1;labelBackgroundColor=none;startArrow=none;startFill=0;startSize=5;endArrow=classicThin;endFill=1;endSize=5;jettySize=auto;orthogonalLoop=1;strokeWidth=1;fontFamily=Verdana;fontSize=12;exitX=0.5;exitY=1;exitDx=0;exitDy=0;entryX=0.5;entryY=0;entryDx=0;entryDy=0;" edge="1" parent="MpLUShYQqHygsxXWGAlu-9" source="vh4EDal8CIMfL7RdVoZ9-71" target="vh4EDal8CIMfL7RdVoZ9-20">
          <mxGeometry relative="1" as="geometry">
            <mxPoint x="-169" y="490" as="sourcePoint" />
            <mxPoint x="-115" y="490" as="targetPoint" />
          </mxGeometry>
        </mxCell>
        <mxCell id="vh4EDal8CIMfL7RdVoZ9-74" style="edgeStyle=none;rounded=0;html=1;labelBackgroundColor=none;startArrow=none;startFill=0;startSize=5;endArrow=classicThin;endFill=1;endSize=5;jettySize=auto;orthogonalLoop=1;strokeWidth=1;fontFamily=Verdana;fontSize=12;exitX=0.5;exitY=1;exitDx=0;exitDy=0;entryX=0.5;entryY=0;entryDx=0;entryDy=0;exitPerimeter=0;" edge="1" parent="MpLUShYQqHygsxXWGAlu-9" source="vh4EDal8CIMfL7RdVoZ9-15" target="vh4EDal8CIMfL7RdVoZ9-71">
          <mxGeometry relative="1" as="geometry">
            <mxPoint x="157" y="770" as="sourcePoint" />
            <mxPoint x="157" y="800" as="targetPoint" />
          </mxGeometry>
        </mxCell>
        <mxCell id="vh4EDal8CIMfL7RdVoZ9-75" value="yes" style="text;html=1;strokeColor=none;fillColor=none;align=center;verticalAlign=middle;whiteSpace=wrap;rounded=0;fontFamily=Verdana;fontSize=12;" vertex="1" parent="MpLUShYQqHygsxXWGAlu-9">
          <mxGeometry x="125" y="660" width="60" height="30" as="geometry" />
        </mxCell>
        <mxCell id="vh4EDal8CIMfL7RdVoZ9-3" style="edgeStyle=none;rounded=0;html=1;labelBackgroundColor=none;startArrow=none;startFill=0;startSize=5;endArrow=classicThin;endFill=1;endSize=5;jettySize=auto;orthogonalLoop=1;strokeWidth=1;fontFamily=Verdana;fontSize=12;entryX=0;entryY=0.5;entryDx=0;entryDy=0;exitX=1;exitY=0.5;exitDx=0;exitDy=0;exitPerimeter=0;" edge="1" parent="p9jpv4_kcnzIVzixiFc--2" source="MpLUShYQqHygsxXWGAlu-8" target="vh4EDal8CIMfL7RdVoZ9-2">
          <mxGeometry relative="1" as="geometry">
            <mxPoint x="660" y="500" as="sourcePoint" />
            <mxPoint x="565" y="510" as="targetPoint" />
          </mxGeometry>
        </mxCell>
        <mxCell id="99bqE9r6Goa_jmTxUzi7-8" value="" style="endArrow=none;dashed=1;html=1;rounded=0;exitX=1;exitY=0.5;exitDx=0;exitDy=0;" edge="1" parent="p9jpv4_kcnzIVzixiFc--1" source="99bqE9r6Goa_jmTxUzi7-5">
          <mxGeometry width="50" height="50" relative="1" as="geometry">
            <mxPoint x="390" y="310" as="sourcePoint" />
            <mxPoint x="350" y="170" as="targetPoint" />
          </mxGeometry>
        </mxCell>
        <mxCell id="99bqE9r6Goa_jmTxUzi7-9" value="" style="endArrow=none;dashed=1;html=1;rounded=0;entryX=0;entryY=0.5;entryDx=0;entryDy=0;" edge="1" parent="p9jpv4_kcnzIVzixiFc--1" target="99bqE9r6Goa_jmTxUzi7-4">
          <mxGeometry width="50" height="50" relative="1" as="geometry">
            <mxPoint x="160" y="270" as="sourcePoint" />
            <mxPoint x="350" y="270" as="targetPoint" />
          </mxGeometry>
        </mxCell>
      </root>
    </mxGraphModel>
  </diagram>
</mxfile>
